<?xml version="1.0" encoding="UTF-8"?>
<svg width="32px" height="32px" viewBox="0 0 32 32" version="1.1" xmlns="http://www.w3.org/2000/svg" xmlns:xlink="http://www.w3.org/1999/xlink">
    <title>色图标/a_主页</title>
    <g id="给开发" stroke="none" stroke-width="1" fill="none" fill-rule="evenodd">
        <g id="色图标/a_主页" transform="translate(-4.000000, -4.000000)" fill="#FFFFFF">
            <path d="M25.2777778,34.9537037 L25.2777778,26.9874385 L25.2777778,26.9874385 C25.2777778,24.0561668 22.9148362,21.6799016 20,21.6799016 C17.0851638,21.6799016 14.7222222,24.0561668 14.7222222,26.9874385 L14.7222222,34.9537037 C14.7222222,35.4395097 14.3283986,35.8333333 13.8425926,35.8333333 L5.0462963,35.8333333 C4.56049027,35.8333333 4.16666667,35.4395097 4.16666667,34.9537037 L4.16666667,15.0766036 L4.16666667,15.0766036 C4.16666667,14.7808383 4.31365378,14.5046418 4.55836557,14.3405807 L19.5120693,4.31523321 C19.8075363,4.11714449 20.1924637,4.11714449 20.4879307,4.31523321 L35.4416344,14.3405807 C35.6863462,14.5046418 35.8333333,14.7808383 35.8333333,15.0766036 L35.8333333,34.9537037 C35.8333333,35.4395097 35.4395097,35.8333333 34.9537037,35.8333333 L26.1574074,35.8333333 C25.6716014,35.8333333 25.2777778,35.4395097 25.2777778,34.9537037 Z" id="路径"></path>
        </g>
    </g>
</svg>